P3
# Created by ImageProcessor for Assignment 4
11 11
255
7
51
182
8
40
179
0
13
148
0
1
134
0
0
136
2
0
150
2
7
160
7
27
178
6
34
177
10
46
181
197
196
211
12
93
198
217
36
74
217
36
74
217
36
74
217
36
74
217
36
74
217
36
74
217
36
74
217
36
74
217
36
74
158
155
171
213
222
226
217
36
74
14
146
229
10
99
210
99
154
148
89
144
139
108
160
156
102
153
148
99
146
140
217
36
74
114
110
177
151
152
193
217
36
74
100
158
144
93
151
139
120
175
169
14
107
205
39
180
238
169
168
184
79
117
118
217
36
74
112
100
152
113
118
176
124
127
186
0
0
0
108
163
157
148
149
202
217
36
74
16
16
16
174
172
188
136
163
172
2
0
151
1
0
156
105
112
173
96
101
173
0
0
0
0
0
0
74
118
119
97
134
140
120
148
159
5
102
212
77
88
106
4
28
169
0
9
153
107
115
174
0
0
0
0
0
0
217
36
74
217
36
74
217
36
74
217
36
74
217
36
74
58
55
82
5
84
199
10
53
188
0
0
0
0
0
0
0
0
0
217
36
74
0
0
0
0
0
0
55
52
79
217
36
74
87
70
106
2
62
179
4
18
171
0
0
0
0
0
0
217
36
74
217
36
74
217
36
74
217
36
74
217
36
74
217
36
74
217
36
74
7
55
176
2
3
156
0
0
0
0
0
0
217
36
74
217
36
74
217
36
74
217
36
74
217
36
74
217
36
74
217
36
74
9
31
166
1
5
149
94
100
97
0
0
0
181
184
197
0
0
0
0
0
0
5
37
175
82
56
158
107
50
148
9
41
182
2
5
152
1
1
148
