P3
# Created by ImageProcessor for Assignment 4
10 10
255
66
34
77
25
235
31
25
235
31
25
235
31
66
34
77
66
34
77
25
235
31
25
235
31
66
34
77
66
34
77
66
34
77
25
235
31
255
255
255
25
235
31
66
34
77
25
235
31
255
255
255
25
235
31
25
235
31
66
34
77
66
34
77
66
34
77
235
26
26
235
28
28
66
34
77
66
34
77
235
31
31
235
26
26
66
34
77
66
34
77
66
34
77
66
34
77
235
37
37
236
45
45
66
34
77
66
34
77
235
30
30
235
29
29
66
34
77
66
34
77
66
34
77
66
34
77
66
34
77
66
34
77
66
34
77
66
34
77
66
34
77
66
34
77
66
34
77
66
34
77
66
34
77
66
34
77
66
34
77
66
34
77
25
235
31
66
34
77
66
34
77
66
34
77
66
34
77
66
34
77
66
34
77
235
25
25
66
34
77
66
34
77
66
34
77
66
34
77
66
34
77
235
25
25
235
25
25
66
34
77
66
34
77
235
25
25
235
25
25
235
25
25
66
34
77
235
25
25
235
25
25
235
25
25
66
34
77
66
34
77
66
34
77
66
34
77
66
34
77
235
25
25
235
25
25
235
25
25
66
34
77
66
34
77
66
34
77
66
34
77
66
34
77
66
34
77
66
34
77
66
34
77
66
34
77
66
34
77
66
34
77
66
34
77
66
34
77
66
34
77
